<svg width="160" height="54" viewBox="0 0 160 54" fill="none" xmlns="http://www.w3.org/2000/svg">
<path d="M21.6952 29.8366L18.7215 21.6H4.8165L1.9266 29.8366H0L10.4707 0.420233H13.1093L23.6637 29.8366H21.6952ZM18.1352 19.877L11.8109 1.93307L5.48662 19.877H18.1352Z" fill="black"/>
<path d="M34.3385 0.420233H37.3541L46.2332 27.1051L54.861 0.420233H57.8347L62.1486 29.8366H60.2638L56.2431 2.10117L47.1965 29.8366H45.228L35.93 2.10117L32.2444 29.8366H30.3597L34.3385 0.420233Z" fill="black"/>
<path d="M70.9432 0.420233H72.828V29.8366H70.9432V0.420233Z" fill="black"/>
<path d="M82.0274 0.420233H99.1155V2.22724H83.9121V13.1113H98.9061L98.8642 14.9183H83.9121V28.0296H99.5762V29.8366H82.0274V0.420233Z" fill="black"/>
<path d="M108.955 0.420233L126.63 27.2311V0.420233H128.514V29.8366H126.127L108.495 2.89961V29.8366H106.568V0.420233H108.955Z" fill="black"/>
<path d="M137.86 22.5665C138.195 23.4911 138.684 24.3175 139.326 25.0459C139.968 25.7743 140.736 26.3907 141.63 26.8949C142.551 27.3992 143.584 27.7914 144.729 28.0716C145.874 28.3237 147.102 28.4498 148.415 28.4498C151.374 28.4498 153.692 27.9735 155.367 27.021C157.042 26.0685 157.88 24.7518 157.88 23.0708C157.88 22.0342 157.573 21.1798 156.959 20.5074C156.372 19.835 155.591 19.2747 154.613 18.8265C153.636 18.3782 152.519 18 151.263 17.6918C150.006 17.3837 148.722 17.0755 147.409 16.7673C146.097 16.4591 144.813 16.1089 143.556 15.7167C142.3 15.3245 141.183 14.8202 140.206 14.2039C139.228 13.5875 138.433 12.8311 137.818 11.9346C137.232 11.0101 136.939 9.86148 136.939 8.48872C136.939 7.22802 137.204 6.07938 137.735 5.0428C138.293 4.00623 139.061 3.10973 140.038 2.35331C141.015 1.59689 142.188 1.02257 143.556 0.63035C144.924 0.210117 146.418 0 148.038 0C149.35 0 150.593 0.168094 151.765 0.504281C152.938 0.840467 153.999 1.33074 154.948 1.9751C155.898 2.59144 156.721 3.33385 157.419 4.20234C158.117 5.07082 158.648 6.05136 159.011 7.14397L157.252 7.81634C156.442 5.79922 155.283 4.30039 153.776 3.31984C152.268 2.31128 150.327 1.807 147.954 1.807C146.502 1.807 145.218 1.9751 144.101 2.31128C142.984 2.64747 142.035 3.10973 141.253 3.69805C140.499 4.28638 139.912 4.98677 139.494 5.79922C139.103 6.58366 138.907 7.45214 138.907 8.40467C138.907 9.49728 139.2 10.4218 139.787 11.1782C140.401 11.9066 141.197 12.523 142.174 13.0272C143.151 13.5035 144.268 13.9097 145.525 14.2459C146.781 14.5821 148.066 14.9183 149.378 15.2545C150.69 15.5626 151.975 15.8988 153.231 16.263C154.488 16.6272 155.604 17.0895 156.582 17.6498C157.559 18.2101 158.341 18.8965 158.927 19.7089C159.541 20.5214 159.849 21.53 159.849 22.7346C159.849 23.9113 159.583 24.9619 159.053 25.8864C158.522 26.8109 157.768 27.5953 156.791 28.2397C155.814 28.884 154.627 29.3883 153.231 29.7525C151.835 30.0887 150.271 30.2568 148.54 30.2568C145.357 30.2568 142.691 29.6405 140.541 28.4078C138.391 27.1471 136.925 25.3681 136.143 23.0708L137.86 22.5665Z" fill="black"/>
<path d="M84.0113 38.5564L88.233 47.0504L90.0141 38.5564H94.2139L90.9596 54H86.9137L82.5601 45.5281L80.779 54H76.5792L79.8335 38.5564H84.0113Z" fill="black"/>
<path d="M103.007 38.5564H114.573L113.759 42.4173H106.481L106.02 44.5794H112.726L112.022 47.9991H105.294L104.832 50.2274H112.264L111.473 54H99.7529L103.007 38.5564Z" fill="black"/>
<path d="M130.408 54L128.187 49.1463L123.965 54H118.908L125.944 46.0355L122.734 38.5564H127.725L129.594 43.1674L133.398 38.5564H138.324L131.727 46.0576L135.421 54H130.408Z" fill="black"/>
<path d="M159.164 42.5497H154.195L151.776 54H147.489L149.907 42.5497H144.938L145.774 38.5564H160L159.164 42.5497Z" fill="black"/>
</svg>
